<svg width="48" height="48" viewBox="0 0 48 48" fill="none" xmlns="http://www.w3.org/2000/svg">
<path d="M3.61647 29.3338V32.5326H5.14473V33.1868H3V29.3338H3.61647Z" fill="#EA8A5D"/>
<path d="M11.0371 33.1873H10.3724L10.0374 32.3677H8.43966L8.1771 33.1873H7.50662L8.86884 29.3338H9.60883L11.0377 33.1873H11.0371ZM9.23826 30.1187L8.64305 31.7948H9.83348L9.23826 30.1187Z" fill="#EA8A5D"/>
<path d="M15.6081 31.1901C15.7724 31.2748 15.9011 31.3924 15.9942 31.543C16.0873 31.6937 16.1338 31.9358 16.1338 32.1268C16.1338 32.4308 16.0246 32.6838 15.8069 32.8855C15.5886 33.0873 15.3226 33.1879 15.0077 33.1879H13.399V29.3338H14.8899C15.1973 29.3338 15.4564 29.4327 15.6673 29.6311C15.8816 29.8288 15.989 30.0732 15.989 30.3631C15.989 30.6814 15.862 31.0031 15.6081 31.1907V31.1901ZM14.8894 29.9755H14.0155V30.9514H14.8894C15.0249 30.9514 15.1393 30.9048 15.2323 30.811C15.3254 30.7172 15.372 30.6013 15.372 30.4637C15.372 30.3262 15.3254 30.2097 15.2323 30.1164C15.1393 30.0227 15.0249 29.9761 14.8894 29.9761V29.9755ZM14.0155 32.5428H15.0077C15.1508 32.5428 15.2714 32.4922 15.3697 32.3916C15.4679 32.291 15.5173 32.1683 15.5173 32.0227C15.5173 31.8772 15.4679 31.755 15.3697 31.6539C15.2714 31.5533 15.1508 31.5027 15.0077 31.5027H14.0155V32.5422V32.5428Z" fill="#EA8A5D"/>
<path d="M19.9429 33.1851C19.5816 33.1851 19.2753 33.1049 19.0231 32.9435C18.7709 32.7827 18.5951 32.5587 18.4951 32.2723L19.026 31.9648C19.1759 32.382 19.4873 32.5905 19.959 32.5905C20.1877 32.5905 20.3612 32.5462 20.479 32.4581C20.5968 32.37 20.6559 32.2512 20.6559 32.1029C20.6559 31.9545 20.5933 31.8397 20.4681 31.7579C20.3428 31.6766 20.121 31.5879 19.8033 31.4925C19.4781 31.397 19.215 31.2839 19.0151 31.1531C18.772 30.9832 18.6502 30.7343 18.6502 30.4052C18.6502 30.0761 18.768 29.8163 19.0042 29.6254C19.2363 29.431 19.5207 29.3338 19.8568 29.3338C20.1532 29.3338 20.5249 29.4213 20.7519 29.5646C20.9788 29.7078 21.1529 29.9084 21.2747 30.1665L20.7548 30.4637C20.5973 30.117 20.225 29.9277 19.8568 29.9277C19.6781 29.9277 19.535 29.9692 19.4276 30.0522C19.3201 30.1352 19.2667 30.2477 19.2667 30.3893C19.2667 30.5308 19.3201 30.6359 19.4276 30.7155C19.535 30.7951 19.7332 30.8792 20.0228 30.9673C20.2015 31.0275 20.3049 31.0628 20.3336 31.0736C20.3802 31.0878 20.4732 31.123 20.6123 31.1799C20.7266 31.2259 20.8179 31.2753 20.8857 31.3282C21.1644 31.5442 21.2931 31.7988 21.2718 32.0921C21.2718 32.428 21.1483 32.6951 20.9018 32.8929C20.6623 33.0873 20.3422 33.1845 19.9418 33.1845L19.9429 33.1851Z" fill="#EA8A5D"/>
<path d="M5.35213 23.5734V25.3745H9.46348V27.6309H3.00287V17.468H9.38994V19.6806H5.35213V21.3658H9.46348V23.5739H5.35213V23.5734Z" fill="#161B45"/>
<path d="M13.5335 17.468V25.3745H17.2041V27.6309H11.1842V17.468H13.5335Z" fill="#161B45"/>
<path d="M18.9254 27.6309V17.468H21.2747V27.6309H18.9254Z" fill="#161B45"/>
<path d="M44.9994 27.6361H42.4738L40.5359 24.2952H39.4202V27.6361H37.0709V17.468H41.1822C42.1607 17.468 42.9932 17.8073 43.6786 18.4848C44.3634 19.1628 44.7064 19.9858 44.7064 20.9543C44.7064 21.5642 44.5323 22.136 44.1853 22.6685C43.8377 23.2011 43.3798 23.6126 42.8122 23.903L45 27.6361H44.9994ZM41.1822 19.6471H39.4202V22.2616H41.1822C41.5051 22.2616 41.7815 22.136 42.0119 21.8842C42.2417 21.6324 42.3572 21.3226 42.3572 20.9543C42.3572 20.586 42.2423 20.2768 42.0119 20.0245C41.7821 19.7727 41.5051 19.6471 41.1822 19.6471Z" fill="#161B45"/>
<path d="M35.2864 17.8642C35.2904 17.9096 35.2944 17.954 35.2979 17.9989C35.3025 18.0546 35.3065 18.1097 35.3076 18.1648C35.3094 18.1984 35.3111 18.2313 35.3111 18.2637C35.3151 18.4053 35.3122 18.5451 35.303 18.6843C35.3019 18.7088 35.3002 18.7326 35.2979 18.7571C35.2961 18.7935 35.2927 18.8298 35.2892 18.8662C35.2812 18.952 35.2703 19.0384 35.2576 19.1237C35.2571 19.1333 35.2553 19.1419 35.2536 19.1515C35.2473 19.193 35.2404 19.2345 35.2329 19.2754C35.2249 19.3226 35.2151 19.3681 35.2065 19.4135C35.1967 19.4602 35.1864 19.5051 35.1761 19.5517C35.1692 19.5806 35.1617 19.6096 35.1537 19.6386C35.118 19.7779 35.0772 19.9154 35.029 20.0507C35.0204 20.0734 35.0129 20.0962 35.0037 20.1189C34.9755 20.1985 34.9439 20.2775 34.9106 20.3553C34.8922 20.3991 34.8727 20.4429 34.8532 20.4861C34.8342 20.527 34.8153 20.5685 34.794 20.6088C34.7923 20.6151 34.7888 20.6213 34.7854 20.6276C34.7676 20.6651 34.7486 20.702 34.7279 20.7395C34.7279 20.7418 34.7268 20.7435 34.7245 20.7452C34.7032 20.7879 34.6808 20.8299 34.6573 20.8708C34.6349 20.9106 34.613 20.9498 34.5889 20.9891C34.5475 21.0584 34.5056 21.1266 34.4602 21.1937C34.4384 21.2283 34.416 21.2619 34.3924 21.2954C34.3464 21.363 34.2987 21.429 34.2493 21.4949C34.2206 21.5324 34.1925 21.5694 34.1632 21.6057C34.0994 21.687 34.0322 21.7683 33.9621 21.8479C33.931 21.8837 33.8983 21.9189 33.865 21.9547C33.4599 22.3946 32.9722 22.7987 32.4034 23.158C32.4005 23.1597 32.397 23.1614 32.3942 23.1636C31.942 23.4478 31.4393 23.7024 30.8866 23.9247L30.8826 23.9224L28.7574 24.775L28.7545 24.7767L25.2533 26.1811C25.2504 26.1822 25.247 26.1834 25.2447 26.1839C23.9761 26.6926 23.3717 27.6827 23.3556 28.6779C22.464 26.1209 23.4407 23.4251 26.0479 21.8774C26.0519 21.8746 26.0554 21.8729 26.0594 21.87C26.461 21.6325 26.9051 21.4148 27.3929 21.2193L27.3963 21.2215L29.6881 20.3019L29.6922 20.3008L33.0262 18.9634C33.0262 18.9634 33.0319 18.9611 33.0342 18.9606C34.3028 18.4513 34.9394 17.4123 34.9566 16.4171C35.1094 16.857 35.2433 17.4288 35.2864 17.863V17.8642Z" fill="#EA8A5D"/>
<path d="M33.5323 28.1584C33.5071 28.2488 33.4812 28.3386 33.4513 28.4278L33.356 28.6938C33.3387 28.7376 33.3203 28.7825 33.3025 28.8262C33.2738 28.8916 33.2451 28.957 33.2146 29.0206C33.1836 29.0854 33.152 29.1502 33.1187 29.2133C33.0739 29.2986 33.0262 29.3827 32.9768 29.4662C32.9262 29.5498 32.8745 29.6322 32.8199 29.7135C32.7378 29.8368 32.6499 29.9562 32.5556 30.075C32.5258 30.1153 32.493 30.154 32.4603 30.1926C32.3959 30.2705 32.4074 30.2472 32.3373 30.3228C32.7194 29.4014 32.3844 28.4051 31.4221 27.4428C31.4204 27.44 31.4186 27.4383 31.4158 27.436H31.4163L28.8298 24.8482L28.7568 24.7749L27.1453 23.1613L27.1412 23.1625C27.1125 23.134 27.0838 23.1051 27.0551 23.0761C27.0332 23.0533 27.0108 23.03 26.9878 23.0067C26.9201 22.9357 26.8517 22.8629 26.785 22.7879C26.7511 22.7504 26.7172 22.7123 26.6839 22.6748C26.6811 22.672 26.6788 22.668 26.6759 22.6651C26.6397 22.6242 26.6046 22.5827 26.5702 22.5418C26.5351 22.5009 26.5012 22.4594 26.4673 22.4179C26.3501 22.2747 26.2404 22.1303 26.1375 21.9854C26.1105 21.9473 26.0835 21.9086 26.0571 21.8706C26.0381 21.8444 26.0209 21.8177 26.0025 21.7916C24.3628 19.3516 24.1508 16.7536 25.9353 14.812C25.5521 15.7333 26.1858 16.799 27.1476 17.7618C27.1499 17.763 27.1516 17.7652 27.1545 17.7675H27.1539L29.6129 20.2291L29.6859 20.3019L31.425 22.0422H31.4296C31.4554 22.0678 31.4818 22.0951 31.5088 22.1218C31.5278 22.1422 31.5479 22.1621 31.5674 22.1826C31.6013 22.2184 31.6364 22.2542 31.6703 22.2917C31.7053 22.3292 31.7404 22.3673 31.7754 22.4054C31.7789 22.4099 31.7823 22.4134 31.7852 22.4173C31.8133 22.448 31.8415 22.4787 31.8685 22.5105C32.0581 22.7265 32.2333 22.9448 32.3925 23.1642C32.412 23.1915 32.431 23.2187 32.4499 23.2454C32.863 23.828 33.1727 24.4225 33.3795 25.0171C33.3962 25.0659 33.4128 25.1142 33.4284 25.1631C33.4301 25.1671 33.4312 25.1716 33.4324 25.1745C33.4456 25.2188 33.46 25.2637 33.4732 25.3081C33.4743 25.3103 33.4743 25.312 33.4755 25.3143C33.4881 25.3603 33.5013 25.4064 33.514 25.453C33.5277 25.5053 33.541 25.5587 33.5542 25.6116C33.5651 25.6576 33.5754 25.7042 33.5846 25.7508C33.5938 25.7957 33.6024 25.8412 33.6111 25.8855C33.6134 25.8957 33.6151 25.9043 33.6168 25.9134C33.6243 25.9577 33.6317 26.0003 33.6381 26.0441C33.6461 26.093 33.6536 26.1413 33.6587 26.1896C33.7449 26.8614 33.7007 27.5247 33.5312 28.1584H33.5323Z" fill="#161B45"/>
</svg>
