<svg width="32" height="32" viewBox="0 0 32 32" fill="none" xmlns="http://www.w3.org/2000/svg">
<g clip-path="url(#clip0_9_24)">
<path d="M28.6128 6.2948C28.6207 6.38833 28.6299 6.4799 28.6358 6.57213C28.6457 6.68644 28.6535 6.8014 28.6562 6.91441C28.6601 6.9839 28.6627 7.0521 28.6634 7.11834C28.6713 7.40996 28.666 7.69898 28.647 7.9867C28.6444 8.03736 28.6404 8.08607 28.6365 8.13673C28.6332 8.21142 28.626 8.28676 28.6194 8.3621C28.603 8.53876 28.58 8.71737 28.5538 8.89338C28.5518 8.91286 28.5485 8.93105 28.5452 8.95118C28.5327 9.03692 28.5183 9.122 28.5025 9.20643C28.4861 9.30385 28.4658 9.39803 28.4474 9.49155C28.4277 9.58703 28.4054 9.6799 28.3844 9.77603C28.3699 9.83578 28.3548 9.89553 28.3384 9.95528C28.2655 10.2424 28.1808 10.5268 28.0811 10.8061C28.0633 10.8529 28.0476 10.8996 28.0285 10.947C27.9701 11.1107 27.9051 11.2737 27.8362 11.4348C27.7981 11.5257 27.7574 11.6147 27.7173 11.7043C27.6786 11.7888 27.6399 11.8745 27.5959 11.9576C27.5919 11.9706 27.5847 11.983 27.5775 11.9966C27.5414 12.0745 27.502 12.1505 27.4587 12.2272C27.4587 12.2317 27.456 12.2356 27.4514 12.2389C27.4081 12.3265 27.3608 12.4136 27.3123 12.4987C27.2663 12.5805 27.221 12.6617 27.1718 12.7422C27.0871 12.8857 27.0004 13.0254 26.9065 13.165C26.8619 13.2371 26.8146 13.3053 26.7667 13.3748C26.6715 13.5138 26.573 13.6502 26.4713 13.7866C26.4122 13.8645 26.3544 13.9405 26.2933 14.0152C26.1614 14.1834 26.0228 14.3503 25.8791 14.5146C25.8147 14.588 25.7471 14.6621 25.6795 14.7355C24.8444 15.6428 23.8373 16.4767 22.6634 17.2184C22.6568 17.2223 22.6509 17.2262 22.6444 17.2295C21.7121 17.8153 20.6741 18.3414 19.5344 18.7999L19.5259 18.796L15.1416 20.5548L15.135 20.5587L7.91195 23.4561C7.90538 23.458 7.89947 23.4606 7.89422 23.4626C5.27731 24.5121 4.03057 26.5554 3.99643 28.6084C2.15685 23.3333 4.17238 17.7712 9.55129 14.5776C9.55917 14.5725 9.56705 14.5686 9.57493 14.5627C10.4041 14.073 11.32 13.6236 12.3264 13.2196L12.3336 13.2241L17.0619 11.327L17.0698 11.3244L23.9482 8.56539V8.56409C23.9528 8.56409 23.9594 8.56149 23.964 8.55955C26.5809 7.50868 27.8946 5.36539 27.9301 3.31238C28.2452 4.22035 28.5216 5.39916 28.6109 6.2961L28.6128 6.2948Z" fill="#EA8A5D"/>
<path d="M24.9947 27.5322C24.9429 27.718 24.8897 27.9044 24.828 28.0882V28.0895L24.631 28.6363C24.5962 28.7266 24.5575 28.8195 24.5207 28.9098C24.4616 29.0442 24.4019 29.1793 24.3395 29.3111C24.2752 29.4449 24.2108 29.5781 24.1413 29.7086C24.0493 29.8846 23.9509 30.0587 23.8484 30.2308C23.7447 30.4029 23.6377 30.5724 23.5248 30.7407C23.3554 30.9946 23.1742 31.2414 22.9799 31.4863C22.9182 31.5694 22.8505 31.6493 22.7836 31.7298C22.6509 31.8902 22.6746 31.8428 22.5301 31.9987C23.3186 30.0983 22.6273 28.0427 20.642 26.0572C20.638 26.0507 20.6348 26.0481 20.6295 26.0436H20.6308L15.2939 20.7049L15.1436 20.5529L11.8189 17.2236L11.8111 17.2262C11.752 17.1678 11.6929 17.1074 11.6338 17.0476C11.5892 17.0009 11.5419 16.9528 11.4953 16.9047C11.3554 16.7586 11.2143 16.6079 11.0771 16.4533C11.0068 16.3761 10.9379 16.2975 10.8689 16.2202C10.8637 16.2143 10.8578 16.2065 10.8525 16.2007C10.7783 16.1156 10.7055 16.0312 10.6346 15.9461C10.5617 15.861 10.4921 15.7759 10.4232 15.6908C10.1822 15.3953 9.95506 15.0972 9.743 14.7985C9.6872 14.7205 9.63139 14.6406 9.57756 14.562C9.53882 14.5081 9.50271 14.4529 9.46529 14.399C6.08156 9.36489 5.64432 4.00471 9.32545 0C8.53565 1.90039 9.84279 4.09888 11.8268 6.0863C11.8321 6.0889 11.8353 6.09345 11.8413 6.09799L11.8399 6.09994L16.9136 11.1763L17.0639 11.3263L20.6518 14.9167H20.6617C20.7155 14.9699 20.7693 15.0258 20.8245 15.081C20.8639 15.1232 20.9052 15.1635 20.9446 15.2057C21.0149 15.2797 21.0864 15.3531 21.1567 15.4304C21.2289 15.507 21.3011 15.5856 21.3733 15.6642C21.3806 15.6733 21.3878 15.6811 21.3937 15.6883C21.4515 15.7519 21.5092 15.8149 21.5657 15.8805C21.957 16.326 22.3181 16.7768 22.6463 17.2288C22.6871 17.2853 22.7264 17.3405 22.7652 17.3957C23.6167 18.5973 24.2555 19.8242 24.6829 21.051C24.7177 21.1523 24.7518 21.2517 24.7833 21.353C24.7873 21.3608 24.7899 21.3706 24.7919 21.3764C24.8194 21.4686 24.8483 21.5602 24.8753 21.6518C24.8772 21.6563 24.8779 21.6596 24.8798 21.6641C24.9061 21.7596 24.9337 21.8544 24.9593 21.9499C24.9882 22.0577 25.0151 22.1675 25.0427 22.2773C25.0656 22.3727 25.0867 22.4682 25.1057 22.5643C25.1247 22.6572 25.1425 22.7514 25.1602 22.8423C25.1654 22.8631 25.1681 22.8806 25.1713 22.9001C25.1871 22.991 25.2029 23.0794 25.2153 23.169C25.2317 23.2697 25.2468 23.369 25.2587 23.4691C25.4366 24.8557 25.3453 26.2235 24.9947 27.5309V27.5322Z" fill="#161B45"/>
</g>
<defs>
<clipPath id="clip0_9_24">
<rect width="25.3333" height="32" fill="white" transform="translate(3.33334)"/>
</clipPath>
</defs>
</svg>
