<svg width="48" height="48" viewBox="0 0 48 48" fill="none" xmlns="http://www.w3.org/2000/svg">
<g clip-path="url(#clip0_9_24)">
<path d="M42.9193 9.4422C42.9311 9.58249 42.9449 9.71986 42.9537 9.8582C42.9685 10.0297 42.9803 10.2021 42.9842 10.3716C42.9902 10.4759 42.9941 10.5781 42.9951 10.6775C43.0069 11.1149 42.999 11.5485 42.9705 11.9801C42.9665 12.056 42.9606 12.1291 42.9547 12.2051C42.9498 12.3171 42.9389 12.4301 42.9291 12.5432C42.9045 12.8081 42.87 13.0761 42.8306 13.3401C42.8277 13.3693 42.8227 13.3966 42.8178 13.4268C42.7991 13.5554 42.7774 13.683 42.7538 13.8096C42.7292 13.9558 42.6987 14.097 42.6711 14.2373C42.6415 14.3805 42.6081 14.5199 42.5765 14.664C42.5549 14.7537 42.5322 14.8433 42.5076 14.9329C42.3983 15.3635 42.2713 15.7902 42.1216 16.2092C42.095 16.2793 42.0714 16.3494 42.0428 16.4206C41.9551 16.6661 41.8577 16.9106 41.7543 17.1522C41.6971 17.2886 41.6361 17.4221 41.576 17.5565C41.5179 17.6832 41.4598 17.8118 41.3938 17.9365C41.3879 17.9559 41.3771 17.9745 41.3662 17.9949C41.3121 18.1118 41.253 18.2258 41.188 18.3408C41.188 18.3476 41.1841 18.3534 41.1772 18.3583C41.1122 18.4898 41.0413 18.6204 40.9684 18.748C40.8995 18.8707 40.8315 18.9925 40.7576 19.1133C40.6306 19.3286 40.5006 19.5381 40.3598 19.7475C40.2928 19.8557 40.2219 19.958 40.15 20.0622C40.0072 20.2707 39.8595 20.4753 39.7069 20.6799C39.6182 20.7968 39.5316 20.9108 39.44 21.0228C39.2421 21.2751 39.0343 21.5255 38.8186 21.772C38.7221 21.8821 38.6207 21.9931 38.5192 22.1032C37.2666 23.4642 35.7559 24.7151 33.9951 25.8277C33.9853 25.8335 33.9764 25.8394 33.9666 25.8442C32.5682 26.723 31.0112 27.5121 29.3016 28.1999L29.2888 28.1941L22.7124 30.8323L22.7026 30.8381L11.8679 35.1841C11.8581 35.187 11.8492 35.1909 11.8413 35.1939C7.91597 36.7682 6.04586 39.8331 5.99465 42.9126C3.23527 35 6.25857 26.6567 14.3269 21.8665C14.3388 21.8587 14.3506 21.8528 14.3624 21.8441C15.6062 21.1095 16.98 20.4353 18.4896 19.8294L18.5005 19.8362L25.5929 16.9905L25.6047 16.9866L35.9223 12.8481V12.8461C35.9292 12.8461 35.9391 12.8422 35.946 12.8393C39.8713 11.263 41.8419 8.04809 41.8951 4.96857C42.3678 6.33053 42.7824 8.09875 42.9163 9.44415L42.9193 9.4422Z" fill="#EA8A5D"/>
<path d="M37.4921 41.2983C37.4143 41.577 37.3345 41.8566 37.2419 42.1323V42.1342L36.9465 42.9545C36.8943 43.0899 36.8362 43.2292 36.7811 43.3647C36.6924 43.5663 36.6028 43.769 36.5093 43.9667C36.4128 44.1674 36.3162 44.3671 36.2119 44.5629C36.074 44.827 35.9263 45.0881 35.7726 45.3462C35.617 45.6044 35.4565 45.8587 35.2871 46.111C35.0331 46.4919 34.7613 46.8621 34.4698 47.2294C34.3772 47.3541 34.2758 47.4739 34.1753 47.5947C33.9764 47.8354 34.0118 47.7642 33.7952 47.9981C34.9779 45.1475 33.9409 42.0641 30.9629 39.0859C30.957 39.0761 30.9521 39.0722 30.9442 39.0654H30.9462L22.9409 31.0573L22.7153 30.8293L17.7284 25.8354L17.7166 25.8393C17.6279 25.7517 17.5393 25.6611 17.4507 25.5714C17.3837 25.5013 17.3128 25.4292 17.2429 25.3571C17.0331 25.1379 16.8214 24.9119 16.6156 24.68C16.5102 24.5641 16.4068 24.4462 16.3034 24.3303C16.2955 24.3215 16.2866 24.3098 16.2788 24.301C16.1675 24.1734 16.0582 24.0468 15.9518 23.9191C15.8425 23.7915 15.7381 23.6639 15.6347 23.5363C15.2733 23.093 14.9326 22.6458 14.6145 22.1977C14.5308 22.0808 14.4471 21.961 14.3663 21.8431C14.3082 21.7622 14.254 21.6794 14.1979 21.5985C9.12231 14.0473 8.46644 6.00706 13.9881 0C12.8034 2.85058 14.7642 6.14833 17.7402 9.12945C17.7481 9.13335 17.753 9.14017 17.7619 9.14699L17.7599 9.14991L25.3703 16.7644L25.5958 16.9895L30.9777 22.375H30.9925C31.0732 22.4549 31.154 22.5387 31.2367 22.6215C31.2958 22.6848 31.3578 22.7452 31.4169 22.8085C31.5223 22.9196 31.6296 23.0297 31.735 23.1456C31.8433 23.2606 31.9517 23.3784 32.06 23.4963C32.0708 23.51 32.0817 23.5217 32.0905 23.5324C32.1772 23.6279 32.2638 23.7223 32.3485 23.8207C32.9355 24.4891 33.4771 25.1652 33.9695 25.8432C34.0306 25.928 34.0896 26.0108 34.1477 26.0936C35.425 27.8959 36.3832 29.7362 37.0243 31.5765C37.0765 31.7285 37.1277 31.8776 37.175 32.0296C37.1809 32.0412 37.1848 32.0559 37.1878 32.0646C37.2291 32.203 37.2725 32.3403 37.3128 32.4777C37.3158 32.4845 37.3168 32.4894 37.3197 32.4962C37.3591 32.6394 37.4005 32.7817 37.4389 32.9249C37.4822 33.0866 37.5226 33.2512 37.564 33.4159C37.5984 33.5591 37.6299 33.7023 37.6585 33.8465C37.6871 33.9858 37.7137 34.1271 37.7402 34.2635C37.7481 34.2946 37.7521 34.3209 37.757 34.3502C37.7806 34.4865 37.8043 34.619 37.823 34.7535C37.8476 34.9045 37.8702 35.0535 37.888 35.2036C38.1548 37.2835 38.018 39.3353 37.4921 41.2964V41.2983Z" fill="#161B45"/>
</g>
<defs>
<clipPath id="clip0_9_24">
<rect width="38" height="48" fill="white" transform="translate(5)"/>
</clipPath>
</defs>
</svg>
