<svg width="120" height="120" viewBox="0 0 120 120" fill="none" xmlns="http://www.w3.org/2000/svg">
<path d="M11.4678 73.0618V80.8951H15.1065V82.4971H10V73.0618H11.4678Z" fill="#EA8A5D"/>
<path d="M29.136 82.4985H27.5533L26.7558 80.4915H22.9516L22.3264 82.4985H20.73L23.9734 73.0618H25.7353L29.1374 82.4985H29.136ZM24.853 74.9839L23.4358 79.0885H26.2702L24.853 74.9839Z" fill="#EA8A5D"/>
<path d="M40.0193 77.6076C40.4105 77.8149 40.7169 78.1031 40.9385 78.4719C41.1601 78.8407 41.2709 79.4337 41.2709 79.9013C41.2709 80.646 41.011 81.2653 40.4926 81.7595C39.9728 82.2536 39.3394 82.4999 38.5898 82.4999H34.7596V73.0618H38.3094C39.0412 73.0618 39.6582 73.3039 40.1602 73.7897C40.6704 74.2741 40.9262 74.8726 40.9262 75.5824C40.9262 76.3618 40.6239 77.1496 40.0193 77.6089V77.6076ZM38.308 74.6332H36.2274V77.023H38.308C38.6308 77.023 38.9031 76.9088 39.1247 76.6792C39.3463 76.4495 39.4571 76.1656 39.4571 75.8288C39.4571 75.4919 39.3463 75.2066 39.1247 74.9783C38.9031 74.7487 38.6308 74.6346 38.308 74.6346V74.6332ZM36.2274 80.9202H38.5898C38.9304 80.9202 39.2177 80.7963 39.4516 80.5499C39.6855 80.3036 39.8032 80.0029 39.8032 79.6466C39.8032 79.2903 39.6855 78.9911 39.4516 78.7433C39.2177 78.4969 38.9304 78.3731 38.5898 78.3731H36.2274V80.9188V80.9202Z" fill="#EA8A5D"/>
<path d="M50.3403 82.493C49.4799 82.493 48.7508 82.2967 48.1503 81.9014C47.5497 81.5075 47.1311 80.9591 46.8931 80.2576L48.1571 79.5046C48.5141 80.5263 49.2555 81.0371 50.3786 81.0371C50.9231 81.0371 51.3362 80.9285 51.6166 80.7128C51.897 80.497 52.0379 80.2061 52.0379 79.8429C52.0379 79.4796 51.8888 79.1984 51.5906 78.998C51.2924 78.799 50.7644 78.5819 50.0079 78.348C49.2337 78.1142 48.6071 77.8372 48.1311 77.5171C47.5525 77.1009 47.2625 76.4913 47.2625 75.6854C47.2625 74.8795 47.5429 74.2434 48.1051 73.7758C48.6578 73.2998 49.3349 73.0618 50.1351 73.0618C50.841 73.0618 51.726 73.2761 52.2664 73.6269C52.8067 73.9776 53.2212 74.4689 53.5112 75.1008L52.2732 75.8288C51.8984 74.9797 51.012 74.5163 50.1351 74.5163C49.7097 74.5163 49.3691 74.6179 49.1133 74.8211C48.8575 75.0243 48.7303 75.2999 48.7303 75.6464C48.7303 75.993 48.8575 76.2505 49.1133 76.4454C49.3691 76.6402 49.841 76.8462 50.5305 77.062C50.9559 77.2095 51.2021 77.2958 51.2705 77.3222C51.3813 77.357 51.6029 77.4433 51.934 77.5825C52.2062 77.6952 52.4237 77.8163 52.5851 77.9458C53.2485 78.4747 53.555 79.0982 53.5043 79.8164C53.5043 80.639 53.2102 81.2932 52.6234 81.7775C52.053 82.2536 51.291 82.4916 50.3376 82.4916L50.3403 82.493Z" fill="#EA8A5D"/>
<path d="M15.6003 58.9553V63.3661H25.3892V68.8917H10.0068V44.004H25.2141V49.4225H15.6003V53.5493H25.3892V58.9567H15.6003V58.9553Z" fill="#161B45"/>
<path d="M35.0797 44.004V63.3661H43.8194V68.8917H29.4862V44.004H35.0797Z" fill="#161B45"/>
<path d="M47.9177 68.8917V44.004H53.5111V68.8917H47.9177Z" fill="#161B45"/>
<path d="M109.999 68.9043H103.985L99.3712 60.723H96.7146V68.9043H91.1212V44.004H100.91C103.24 44.004 105.222 44.835 106.854 46.4941C108.484 48.1545 109.301 50.1699 109.301 52.5416C109.301 54.0351 108.886 55.4353 108.06 56.7395C107.233 58.0436 106.142 59.0513 104.791 59.7626L110 68.9043H109.999ZM100.91 49.3404H96.7146V55.7429H100.91C101.679 55.7429 102.337 55.4353 102.885 54.8187C103.433 54.2021 103.708 53.4436 103.708 52.5416C103.708 51.6397 103.434 50.8826 102.885 50.2646C102.338 49.648 101.679 49.3404 100.91 49.3404Z" fill="#161B45"/>
<path d="M86.8723 44.9743C86.8819 45.0857 86.8915 45.1942 86.8997 45.3042C86.9106 45.4406 86.9202 45.5756 86.9229 45.7106C86.927 45.7927 86.9311 45.8735 86.9311 45.9528C86.9407 46.2994 86.9339 46.6418 86.912 46.9828C86.9092 47.0426 86.9051 47.1011 86.8997 47.1609C86.8956 47.25 86.8874 47.3391 86.8792 47.4282C86.86 47.6383 86.834 47.8499 86.8039 48.0587C86.8025 48.0823 86.7984 48.1032 86.7943 48.1269C86.7793 48.2285 86.7629 48.3301 86.7451 48.4303C86.7259 48.5458 86.7027 48.6572 86.6822 48.7685C86.6589 48.8826 86.6343 48.9926 86.6097 49.1067C86.5932 49.1777 86.5755 49.2487 86.5563 49.3197C86.4715 49.6607 86.3744 49.9975 86.2595 50.3288C86.239 50.3844 86.2212 50.4401 86.1993 50.4958C86.1323 50.6907 86.057 50.8841 85.9777 51.0748C85.9339 51.182 85.8874 51.2892 85.8409 51.3949C85.7957 51.4951 85.7506 51.5968 85.7 51.6956C85.6959 51.7109 85.6877 51.7262 85.6795 51.7415C85.6371 51.8334 85.5919 51.9238 85.5427 52.0157C85.5427 52.0213 85.5399 52.0254 85.5345 52.0296C85.4839 52.134 85.4305 52.237 85.3744 52.3372C85.3211 52.4346 85.2691 52.5307 85.2116 52.6267C85.1131 52.7965 85.0133 52.9635 84.9052 53.1278C84.8532 53.2127 84.7999 53.2948 84.7438 53.3769C84.6344 53.5426 84.5208 53.704 84.4032 53.8655C84.3348 53.9573 84.2678 54.0478 84.198 54.1369C84.0462 54.3359 83.8861 54.5349 83.7192 54.7298C83.6454 54.8175 83.5674 54.9038 83.488 54.9915C82.5236 56.0688 81.3623 57.0584 80.008 57.938C80.0012 57.9422 79.993 57.9464 79.9861 57.9519C78.9096 58.6479 77.7126 59.2714 76.3967 59.8156L76.3871 59.8101L71.3271 61.8978L71.3203 61.902L62.9841 65.3413C62.9773 65.3441 62.969 65.3469 62.9636 65.3482C59.9432 66.594 58.5041 69.0186 58.4658 71.4557C56.3428 65.1938 58.6683 58.5922 64.8759 54.8022C64.8855 54.7952 64.8937 54.7911 64.9033 54.7841C65.8595 54.2023 66.9169 53.6692 68.0783 53.1904L68.0865 53.196L73.5432 50.944L73.5527 50.9412L81.4909 47.6662C81.4909 47.6662 81.5045 47.6606 81.51 47.6592C84.5304 46.4121 86.0461 43.8678 86.0871 41.4307C86.451 42.508 86.7697 43.9082 86.8723 44.9715V44.9743Z" fill="#EA8A5D"/>
<path d="M82.696 70.1835C82.6359 70.4048 82.5743 70.6247 82.5032 70.8432L82.2761 71.4946C82.2351 71.6018 82.1913 71.7117 82.1489 71.8189C82.0805 71.979 82.0121 72.139 81.9396 72.2949C81.8657 72.4536 81.7905 72.6122 81.7111 72.7667C81.6044 72.9755 81.4909 73.1815 81.3733 73.3861C81.2529 73.5907 81.1298 73.7925 80.9998 73.9916C80.8042 74.2936 80.5949 74.5859 80.3706 74.8768C80.2994 74.9756 80.2215 75.0703 80.1435 75.1649C79.9903 75.3556 80.0176 75.2985 79.8507 75.4836C80.7604 73.2274 79.9629 70.7875 77.6716 68.4311C77.6675 68.4242 77.6634 68.42 77.6566 68.4144H77.658L71.4995 62.0773L71.3258 61.8978L67.4887 57.9463L67.4792 57.9491C67.4108 57.8795 67.3424 57.8085 67.274 57.7375C67.222 57.6819 67.1686 57.6248 67.1139 57.5677C66.9525 57.3937 66.7897 57.2156 66.631 57.0319C66.5503 56.94 66.4696 56.8467 66.3903 56.7549C66.3834 56.7479 66.378 56.7382 66.3711 56.7312C66.285 56.631 66.2015 56.5294 66.1194 56.4292C66.036 56.329 65.9553 56.2274 65.8746 56.1258C65.5955 55.775 65.3342 55.4215 65.0894 55.0666C65.0251 54.9733 64.9608 54.8787 64.8979 54.7854C64.8527 54.7214 64.8117 54.656 64.7679 54.5919C60.8638 48.6167 60.3591 42.2546 64.6079 37.5C63.6955 39.7562 65.2043 42.3659 67.4942 44.7237C67.4997 44.7265 67.5038 44.7321 67.5106 44.7376H67.5093L73.364 50.7657L73.5377 50.9439L77.6785 55.2057H77.6894C77.751 55.2684 77.8139 55.3352 77.8782 55.4006C77.9233 55.4507 77.9712 55.4994 78.0177 55.5495C78.0984 55.6372 78.1819 55.7249 78.2626 55.8168C78.346 55.9086 78.4295 56.0019 78.5129 56.0951C78.5211 56.1063 78.5293 56.1146 78.5362 56.1244C78.6032 56.1995 78.6702 56.2747 78.7345 56.3526C79.1859 56.8815 79.6031 57.416 79.9821 57.9533C80.0286 58.0201 80.0737 58.0869 80.1189 58.1523C81.1024 59.5789 81.8397 61.0348 82.3322 62.4907C82.3719 62.6104 82.4115 62.7287 82.4485 62.8484C82.4526 62.8581 82.4553 62.8693 82.458 62.8762C82.4895 62.9848 82.5237 63.0948 82.5552 63.2033C82.5579 63.2089 82.5579 63.2131 82.5606 63.2186C82.5907 63.3314 82.6222 63.4441 82.6523 63.5582C82.6851 63.6863 82.7166 63.8171 82.748 63.9466C82.774 64.0593 82.7986 64.1734 82.8205 64.2876C82.8424 64.3975 82.8629 64.5089 82.8835 64.6174C82.8889 64.6425 82.893 64.6634 82.8971 64.6856C82.9149 64.7942 82.9327 64.8986 82.9477 65.0058C82.9669 65.1255 82.9847 65.2438 82.997 65.3621C83.2022 67.0073 83.0968 68.6315 82.6933 70.1835H82.696Z" fill="#161B45"/>
</svg>
