<svg width="48" height="48" viewBox="0 0 48 48" fill="none" xmlns="http://www.w3.org/2000/svg">
<path d="M3.61647 29.3339V32.5326H5.14473V33.1868H3V29.3339H3.61647Z" fill="#EA8A5D"/>
<path d="M11.0371 33.1874H10.3724L10.0374 32.3678H8.43966L8.1771 33.1874H7.50662L8.86884 29.3339H9.60883L11.0377 33.1874H11.0371ZM9.23826 30.1188L8.64305 31.7949H9.83348L9.23826 30.1188Z" fill="#EA8A5D"/>
<path d="M15.6081 31.1902C15.7724 31.2748 15.9011 31.3925 15.9942 31.5431C16.0873 31.6937 16.1338 31.9358 16.1338 32.1268C16.1338 32.4309 16.0246 32.6838 15.8069 32.8856C15.5886 33.0874 15.3226 33.188 15.0077 33.188H13.399V29.3339H14.8899C15.1973 29.3339 15.4564 29.4328 15.6673 29.6311C15.8816 29.8289 15.989 30.0733 15.989 30.3632C15.989 30.6815 15.862 31.0032 15.6081 31.1907V31.1902ZM14.8894 29.9755H14.0155V30.9514H14.8894C15.0249 30.9514 15.1393 30.9048 15.2323 30.811C15.3254 30.7173 15.372 30.6013 15.372 30.4638C15.372 30.3262 15.3254 30.2097 15.2323 30.1165C15.1393 30.0227 15.0249 29.9761 14.8894 29.9761V29.9755ZM14.0155 32.5429H15.0077C15.1508 32.5429 15.2714 32.4923 15.3697 32.3917C15.4679 32.2911 15.5173 32.1683 15.5173 32.0228C15.5173 31.8773 15.4679 31.7551 15.3697 31.6539C15.2714 31.5533 15.1508 31.5028 15.0077 31.5028H14.0155V32.5423V32.5429Z" fill="#EA8A5D"/>
<path d="M19.9429 33.1851C19.5816 33.1851 19.2753 33.105 19.0231 32.9436C18.7709 32.7827 18.5951 32.5588 18.4951 32.2723L19.026 31.9648C19.1759 32.382 19.4873 32.5906 19.959 32.5906C20.1877 32.5906 20.3612 32.5463 20.479 32.4582C20.5968 32.3701 20.6559 32.2513 20.6559 32.1029C20.6559 31.9546 20.5933 31.8398 20.4681 31.758C20.3428 31.6767 20.121 31.588 19.8033 31.4925C19.4781 31.397 19.215 31.2839 19.0151 31.1532C18.772 30.9833 18.6502 30.7343 18.6502 30.4052C18.6502 30.0761 18.768 29.8164 19.0042 29.6254C19.2363 29.4311 19.5207 29.3339 19.8568 29.3339C20.1532 29.3339 20.5249 29.4214 20.7519 29.5646C20.9788 29.7078 21.1529 29.9085 21.2747 30.1665L20.7548 30.4638C20.5973 30.1171 20.225 29.9278 19.8568 29.9278C19.6781 29.9278 19.535 29.9693 19.4276 30.0523C19.3201 30.1353 19.2667 30.2478 19.2667 30.3893C19.2667 30.5308 19.3201 30.636 19.4276 30.7156C19.535 30.7951 19.7332 30.8793 20.0228 30.9674C20.2015 31.0276 20.3049 31.0628 20.3336 31.0736C20.3802 31.0878 20.4732 31.1231 20.6123 31.1799C20.7266 31.226 20.8179 31.2754 20.8857 31.3283C21.1644 31.5442 21.2931 31.7989 21.2718 32.0922C21.2718 32.4281 21.1483 32.6952 20.9018 32.893C20.6623 33.0874 20.3422 33.1846 19.9418 33.1846L19.9429 33.1851Z" fill="#EA8A5D"/>
<path d="M5.35213 23.5734V25.3746H9.46348V27.631H3.00287V17.468H9.38994V19.6807H5.35213V21.3659H9.46348V23.574H5.35213V23.5734Z" fill="#FDFEFF"/>
<path d="M13.5335 17.468V25.3746H17.2041V27.631H11.1842V17.468H13.5335Z" fill="#FDFEFF"/>
<path d="M18.9254 27.631V17.468H21.2747V27.631H18.9254Z" fill="#FDFEFF"/>
<path d="M44.9994 27.6361H42.4738L40.5359 24.2952H39.4202V27.6361H37.0709V17.468H41.1822C42.1607 17.468 42.9932 17.8073 43.6786 18.4848C44.3634 19.1629 44.7064 19.9859 44.7064 20.9544C44.7064 21.5642 44.5323 22.136 44.1853 22.6686C43.8377 23.2011 43.3798 23.6126 42.8122 23.9031L45 27.6361H44.9994ZM41.1822 19.6471H39.4202V22.2616H41.1822C41.5051 22.2616 41.7815 22.136 42.0119 21.8842C42.2417 21.6324 42.3572 21.3227 42.3572 20.9544C42.3572 20.5861 42.2423 20.2769 42.0119 20.0245C41.7821 19.7727 41.5051 19.6471 41.1822 19.6471Z" fill="#FDFEFF"/>
<path d="M35.2864 17.8642C35.2904 17.9097 35.2944 17.954 35.2979 17.9989C35.3025 18.0546 35.3065 18.1098 35.3076 18.1649C35.3094 18.1984 35.3111 18.2314 35.3111 18.2638C35.3151 18.4053 35.3122 18.5451 35.303 18.6844C35.3019 18.7088 35.3002 18.7327 35.2979 18.7571C35.2961 18.7935 35.2927 18.8299 35.2892 18.8663C35.2812 18.9521 35.2703 19.0385 35.2576 19.1237C35.2571 19.1334 35.2553 19.1419 35.2536 19.1516C35.2473 19.1931 35.2404 19.2346 35.2329 19.2755C35.2249 19.3227 35.2151 19.3681 35.2065 19.4136C35.1967 19.4602 35.1864 19.5051 35.1761 19.5517C35.1692 19.5807 35.1617 19.6097 35.1537 19.6387C35.118 19.7779 35.0772 19.9155 35.029 20.0507C35.0204 20.0735 35.0129 20.0962 35.0037 20.119C34.9755 20.1985 34.9439 20.2775 34.9106 20.3554C34.8922 20.3992 34.8727 20.4429 34.8532 20.4861C34.8342 20.527 34.8153 20.5685 34.794 20.6089C34.7923 20.6151 34.7888 20.6214 34.7854 20.6276C34.7676 20.6652 34.7486 20.7021 34.7279 20.7396C34.7279 20.7419 34.7268 20.7436 34.7245 20.7453C34.7032 20.7879 34.6808 20.83 34.6573 20.8709C34.6349 20.9107 34.613 20.9499 34.5889 20.9891C34.5475 21.0585 34.5056 21.1267 34.4602 21.1937C34.4384 21.2284 34.416 21.2619 34.3924 21.2955C34.3464 21.3631 34.2987 21.429 34.2493 21.495C34.2206 21.5325 34.1925 21.5694 34.1632 21.6058C34.0994 21.6871 34.0322 21.7684 33.9621 21.8479C33.931 21.8837 33.8983 21.919 33.865 21.9548C33.4599 22.3947 32.9722 22.7988 32.4034 23.158C32.4005 23.1597 32.397 23.1614 32.3942 23.1637C31.942 23.4479 31.4393 23.7025 30.8866 23.9247L30.8826 23.9225L28.7574 24.775L28.7545 24.7767L25.2533 26.1812C25.2504 26.1823 25.247 26.1834 25.2447 26.184C23.9761 26.6927 23.3717 27.6828 23.3556 28.678C22.464 26.1209 23.4407 23.4251 26.0479 21.8775C26.0519 21.8746 26.0554 21.8729 26.0594 21.8701C26.461 21.6325 26.9051 21.4148 27.3929 21.2193L27.3963 21.2216L29.6881 20.302L29.6922 20.3008L33.0262 18.9635C33.0262 18.9635 33.0319 18.9612 33.0342 18.9606C34.3028 18.4514 34.9394 17.4124 34.9566 16.4172C35.1094 16.8571 35.2433 17.4289 35.2864 17.8631V17.8642Z" fill="#EA8A5D"/>
<path d="M33.5323 28.1585C33.5071 28.2488 33.4812 28.3387 33.4513 28.4279L33.356 28.6939C33.3387 28.7376 33.3203 28.7825 33.3025 28.8263C33.2738 28.8917 33.2451 28.957 33.2146 29.0207C33.1836 29.0855 33.152 29.1503 33.1187 29.2134C33.0739 29.2986 33.0262 29.3827 32.9768 29.4663C32.9262 29.5498 32.8745 29.6323 32.8199 29.7135C32.7378 29.8369 32.6499 29.9562 32.5556 30.075C32.5258 30.1154 32.493 30.154 32.4603 30.1927C32.3959 30.2705 32.4074 30.2472 32.3373 30.3228C32.7194 29.4015 32.3844 28.4052 31.4221 27.4429C31.4204 27.4401 31.4186 27.4384 31.4158 27.4361H31.4163L28.8298 24.8483L28.7568 24.775L27.1453 23.1614L27.1412 23.1625C27.1125 23.1341 27.0838 23.1051 27.0551 23.0761C27.0332 23.0534 27.0108 23.0301 26.9878 23.0068C26.9201 22.9357 26.8517 22.863 26.785 22.788C26.7511 22.7505 26.7172 22.7124 26.6839 22.6749C26.6811 22.672 26.6788 22.668 26.6759 22.6652C26.6397 22.6243 26.6046 22.5828 26.5702 22.5419C26.5351 22.5009 26.5012 22.4595 26.4673 22.418C26.3501 22.2747 26.2404 22.1304 26.1375 21.9854C26.1105 21.9474 26.0835 21.9087 26.0571 21.8706C26.0381 21.8445 26.0209 21.8178 26.0025 21.7916C24.3628 19.3516 24.1508 16.7536 25.9353 14.8121C25.5521 15.7334 26.1858 16.7991 27.1476 17.7619C27.1499 17.763 27.1516 17.7653 27.1545 17.7676H27.1539L29.6129 20.2292L29.6859 20.3019L31.425 22.0423H31.4296C31.4554 22.0679 31.4818 22.0951 31.5088 22.1218C31.5278 22.1423 31.5479 22.1622 31.5674 22.1827C31.6013 22.2185 31.6364 22.2543 31.6703 22.2918C31.7053 22.3293 31.7404 22.3674 31.7754 22.4055C31.7789 22.41 31.7823 22.4134 31.7852 22.4174C31.8133 22.4481 31.8415 22.4788 31.8685 22.5106C32.0581 22.7266 32.2333 22.9448 32.3925 23.1642C32.412 23.1915 32.431 23.2188 32.4499 23.2455C32.863 23.8281 33.1727 24.4226 33.3795 25.0171C33.3962 25.066 33.4128 25.1143 33.4284 25.1632C33.4301 25.1672 33.4312 25.1717 33.4324 25.1745C33.4456 25.2189 33.46 25.2638 33.4732 25.3081C33.4743 25.3104 33.4743 25.3121 33.4755 25.3144C33.4881 25.3604 33.5013 25.4064 33.514 25.453C33.5277 25.5053 33.541 25.5588 33.5542 25.6116C33.5651 25.6577 33.5754 25.7043 33.5846 25.7509C33.5938 25.7958 33.6024 25.8412 33.6111 25.8856C33.6134 25.8958 33.6151 25.9043 33.6168 25.9134C33.6243 25.9578 33.6317 26.0004 33.6381 26.0442C33.6461 26.093 33.6536 26.1413 33.6587 26.1897C33.7449 26.8615 33.7007 27.5247 33.5312 28.1585H33.5323Z" fill="#FDFEFF"/>
</svg>
