<svg width="48" height="48" viewBox="0 0 48 48" fill="none" xmlns="http://www.w3.org/2000/svg">
<g clip-path="url(#clip0_9_24)">
<path d="M40.9277 11.2619C40.9383 11.3847 40.9506 11.5049 40.9586 11.6259C40.9718 11.7759 40.9824 11.9268 40.9859 12.0751C40.9912 12.1663 40.9947 12.2559 40.9956 12.3428C41.0062 12.7256 40.9991 13.1049 40.9735 13.4825C40.97 13.549 40.9647 13.6129 40.9595 13.6794C40.955 13.7775 40.9454 13.8764 40.9365 13.9752C40.9145 14.2071 40.8837 14.4415 40.8484 14.6725C40.8458 14.6981 40.8414 14.722 40.837 14.7484C40.8202 14.8609 40.8008 14.9726 40.7797 15.0834C40.7577 15.2113 40.7304 15.3349 40.7057 15.4576C40.6793 15.583 40.6493 15.7049 40.6211 15.831C40.6017 15.9094 40.5814 15.9879 40.5594 16.0663C40.4616 16.4431 40.348 16.8164 40.214 17.183C40.1902 17.2444 40.1691 17.3057 40.1435 17.368C40.0651 17.5828 39.9779 17.7968 39.8854 18.0082C39.8343 18.1275 39.7796 18.2443 39.7259 18.3619C39.6739 18.4727 39.6219 18.5853 39.5629 18.6944C39.5576 18.7114 39.5479 18.7276 39.5382 18.7455C39.4897 18.8478 39.4369 18.9476 39.3787 19.0481C39.3787 19.0541 39.3752 19.0592 39.369 19.0635C39.3109 19.1786 39.2474 19.2928 39.1822 19.4045C39.1205 19.5119 39.0597 19.6184 38.9937 19.7241C38.88 19.9125 38.7637 20.0958 38.6377 20.2791C38.5778 20.3737 38.5143 20.4632 38.45 20.5544C38.3222 20.7368 38.1901 20.9159 38.0535 21.0949C37.9742 21.1972 37.8967 21.2969 37.8147 21.3949C37.6376 21.6157 37.4517 21.8348 37.2587 22.0505C37.1724 22.1468 37.0816 22.244 36.9909 22.3403C35.8701 23.5312 34.5184 24.6257 32.943 25.5992C32.9342 25.6043 32.9262 25.6094 32.9174 25.6137C31.6662 26.3826 30.2732 27.0731 28.7435 27.6749L28.7321 27.6698L22.8479 29.9782L22.8391 29.9833L13.145 33.7861C13.1361 33.7886 13.1282 33.792 13.1212 33.7946C9.609 35.1722 7.93574 37.8539 7.88992 40.5485C5.42101 33.625 8.12607 26.3246 15.3451 22.1331C15.3557 22.1263 15.3663 22.1212 15.3768 22.1135C16.4897 21.4708 17.7189 20.8809 19.0696 20.3507L19.0793 20.3566L25.4252 17.8667L25.4358 17.8632L34.6673 14.2421V14.2403C34.6735 14.2403 34.6823 14.2369 34.6885 14.2344C38.2006 12.8551 39.9638 10.0421 40.0114 7.34747C40.4343 8.53919 40.8053 10.0864 40.9251 11.2636L40.9277 11.2619Z" fill="#EA8A5D"/>
<path d="M36.0719 39.136C36.0023 39.3798 35.9309 39.6245 35.8481 39.8657V39.8674L35.5837 40.5852C35.537 40.7037 35.485 40.8256 35.4357 40.9441C35.3564 41.1205 35.2762 41.2978 35.1925 41.4709C35.1061 41.6465 35.0198 41.8212 34.9264 41.9926C34.803 42.2236 34.6709 42.452 34.5334 42.6779C34.3942 42.9038 34.2506 43.1263 34.099 43.3471C33.8717 43.6804 33.6285 44.0043 33.3677 44.3257C33.2849 44.4348 33.1941 44.5397 33.1042 44.6454C32.9262 44.8559 32.958 44.7937 32.7641 44.9983C33.8223 42.504 32.8945 39.8061 30.23 37.2001C30.2247 37.1916 30.2203 37.1882 30.2133 37.1822H30.215L23.0523 30.1751L22.8506 29.9756L18.3885 25.606L18.378 25.6094C18.2987 25.5327 18.2194 25.4534 18.1401 25.375C18.0802 25.3136 18.0167 25.2505 17.9542 25.1875C17.7665 24.9957 17.577 24.7979 17.3929 24.595C17.2986 24.4936 17.2061 24.3904 17.1136 24.289C17.1065 24.2813 17.0986 24.2711 17.0915 24.2634C16.992 24.1517 16.8942 24.0409 16.799 23.9292C16.7012 23.8176 16.6078 23.7059 16.5153 23.5942C16.1919 23.2064 15.887 22.8151 15.6024 22.423C15.5275 22.3207 15.4526 22.2158 15.3804 22.1127C15.3284 22.0419 15.2799 21.9695 15.2297 21.8987C10.6884 15.2914 10.1016 8.25618 15.042 3C13.982 5.49426 15.7364 8.37979 18.3991 10.9883C18.4062 10.9917 18.4106 10.9976 18.4185 11.0036L18.4167 11.0062L25.2261 17.6689L25.4279 17.8658L30.2432 22.5781H30.2564C30.3287 22.648 30.4009 22.7213 30.475 22.7938C30.5278 22.8492 30.5833 22.9021 30.6362 22.9575C30.7305 23.0546 30.8265 23.151 30.9208 23.2524C31.0177 23.353 31.1146 23.4561 31.2116 23.5593C31.2213 23.5712 31.231 23.5815 31.2389 23.5908C31.3164 23.6744 31.394 23.7571 31.4697 23.8432C31.9949 24.4279 32.4795 25.0195 32.9201 25.6128C32.9747 25.687 33.0276 25.7595 33.0796 25.8319C34.2224 27.4089 35.0797 29.0192 35.6533 30.6295C35.7 30.7625 35.7458 30.8929 35.7881 31.0259C35.7934 31.0361 35.797 31.0489 35.7996 31.0565C35.8366 31.1776 35.8754 31.2978 35.9115 31.418C35.9141 31.424 35.915 31.4282 35.9177 31.4342C35.9529 31.5595 35.9899 31.6839 36.0243 31.8093C36.063 31.9508 36.0992 32.0948 36.1362 32.2389C36.167 32.3642 36.1952 32.4895 36.2208 32.6157C36.2463 32.7376 36.2701 32.8612 36.2939 32.9805C36.301 33.0078 36.3045 33.0308 36.3089 33.0564C36.33 33.1757 36.3512 33.2917 36.3679 33.4093C36.3899 33.5414 36.4102 33.6719 36.4261 33.8031C36.6649 35.6231 36.5424 37.4184 36.0719 39.1343V39.136Z" fill="#161B45"/>
</g>
<defs>
<clipPath id="clip0_9_24">
<rect width="34" height="42" fill="white" transform="translate(7 3)"/>
</clipPath>
</defs>
</svg>
