<svg width="40" height="40" viewBox="0 0 40 40" fill="none" xmlns="http://www.w3.org/2000/svg">
<g clip-path="url(#clip0_9_24)">
<path d="M33.9405 9.68823C33.9492 9.7876 33.9594 9.88491 33.9659 9.9829C33.9768 10.1043 33.9855 10.2265 33.9884 10.3466C33.9927 10.4204 33.9957 10.4929 33.9964 10.5632C34.0051 10.8731 33.9993 11.1802 33.9782 11.4859C33.9753 11.5397 33.971 11.5915 33.9666 11.6453C33.963 11.7246 33.955 11.8047 33.9478 11.8847C33.9296 12.0724 33.9042 12.2622 33.8752 12.4492C33.873 12.4699 33.8694 12.4892 33.8658 12.5106C33.852 12.6017 33.836 12.6921 33.8186 12.7818C33.8005 12.8854 33.778 12.9854 33.7576 13.0848C33.7359 13.1862 33.7112 13.2849 33.688 13.387C33.672 13.4505 33.6553 13.514 33.6372 13.5775C33.5566 13.8825 33.463 14.1848 33.3527 14.4815C33.3331 14.5312 33.3157 14.5809 33.2947 14.6312C33.2301 14.8051 33.1583 14.9783 33.0821 15.1495C33.04 15.2461 32.995 15.3406 32.9507 15.4359C32.9079 15.5256 32.8651 15.6167 32.8165 15.705C32.8121 15.7188 32.8042 15.7319 32.7962 15.7464C32.7563 15.8292 32.7127 15.91 32.6648 15.9914C32.6648 15.9962 32.6619 16.0004 32.6569 16.0038C32.609 16.097 32.5567 16.1894 32.503 16.2798C32.4522 16.3668 32.4022 16.453 32.3477 16.5386C32.2541 16.6911 32.1583 16.8395 32.0546 16.9878C32.0052 17.0644 31.953 17.1369 31.9 17.2107C31.7948 17.3584 31.686 17.5033 31.5735 17.6483C31.5082 17.7311 31.4443 17.8118 31.3768 17.8912C31.231 18.0699 31.0779 18.2472 30.919 18.4218C30.8479 18.4998 30.7731 18.5785 30.6984 18.6565C29.7754 19.6205 28.6622 20.5065 27.3648 21.2946C27.3576 21.2987 27.351 21.3029 27.3438 21.3063C26.3134 21.9288 25.1662 22.4877 23.9065 22.9749L23.897 22.9708L19.0512 24.8395L19.044 24.8437L11.0606 27.9221C11.0533 27.9242 11.0468 27.9269 11.041 27.929C8.14861 29.0442 6.77063 31.2151 6.7329 33.3965C4.69967 27.7917 6.92737 21.8819 12.8725 18.4888C12.8812 18.4832 12.8899 18.4791 12.8986 18.4729C13.8151 17.9526 14.8273 17.475 15.9397 17.0458L15.9477 17.0506L21.1737 15.0349L21.1824 15.0322L28.7849 12.1007V12.0994C28.79 12.0994 28.7972 12.0966 28.8023 12.0945C31.6947 10.978 33.1467 8.70074 33.1858 6.51941C33.5341 7.48413 33.8396 8.73662 33.9383 9.68961L33.9405 9.68823Z" fill="#EA8A5D"/>
<path d="M29.9415 32.253C29.8842 32.4503 29.8254 32.6484 29.7572 32.8437V32.8451L29.5395 33.4261C29.5011 33.522 29.4583 33.6207 29.4176 33.7166C29.3523 33.8595 29.2863 34.003 29.2174 34.1431C29.1462 34.2852 29.0751 34.4267 28.9982 34.5654C28.8966 34.7524 28.7878 34.9374 28.6746 35.1202C28.5599 35.3031 28.4417 35.4832 28.3168 35.6619C28.1296 35.9318 27.9294 36.194 27.7146 36.4542C27.6464 36.5425 27.5716 36.6274 27.4976 36.7129C27.351 36.8834 27.3772 36.833 27.2175 36.9986C28.089 34.9795 27.3249 32.7954 25.1306 30.6858C25.1262 30.6789 25.1226 30.6762 25.1168 30.6713H25.1183L19.2196 24.9989L19.0534 24.8374L15.3788 21.3001L15.3701 21.3029C15.3048 21.2408 15.2395 21.1766 15.1742 21.1131C15.1248 21.0634 15.0726 21.0123 15.0211 20.9613C14.8665 20.806 14.7105 20.6459 14.5588 20.4817C14.4812 20.3996 14.405 20.3161 14.3288 20.2339C14.323 20.2277 14.3165 20.2194 14.3107 20.2132C14.2287 20.1228 14.1481 20.0331 14.0698 19.9427C13.9892 19.8523 13.9123 19.7619 13.8361 19.6715C13.5698 19.3575 13.3187 19.0408 13.0844 18.7234C13.0227 18.6406 12.961 18.5557 12.9015 18.4722C12.8587 18.4149 12.8188 18.3562 12.7774 18.299C9.0375 12.9502 8.55423 7.255 12.6229 3C11.7499 5.01916 13.1947 7.35506 15.3875 9.46669C15.3933 9.46945 15.3969 9.47429 15.4035 9.47912L15.402 9.48119L21.0097 14.8748L21.1759 15.0342L25.1415 18.849H25.1524C25.2119 18.9055 25.2714 18.9649 25.3323 19.0235C25.3759 19.0684 25.4216 19.1112 25.4651 19.156C25.5428 19.2347 25.6218 19.3127 25.6995 19.3948C25.7793 19.4762 25.8591 19.5597 25.9389 19.6432C25.9469 19.6529 25.9549 19.6612 25.9614 19.6688C26.0253 19.7364 26.0892 19.8033 26.1516 19.873C26.584 20.3464 26.9831 20.8253 27.3459 21.3056C27.3909 21.3657 27.4345 21.4243 27.4773 21.483C28.4184 22.7596 29.1245 24.0632 29.5969 25.3667C29.6353 25.4744 29.6731 25.5799 29.7079 25.6876C29.7122 25.6959 29.7151 25.7062 29.7173 25.7124C29.7478 25.8104 29.7797 25.9077 29.8095 26.005C29.8116 26.0099 29.8124 26.0133 29.8146 26.0181C29.8436 26.1196 29.8741 26.2203 29.9024 26.3218C29.9343 26.4363 29.964 26.553 29.9945 26.6696C30.0199 26.771 30.0431 26.8725 30.0642 26.9746C30.0852 27.0733 30.1048 27.1733 30.1244 27.2699C30.1302 27.292 30.1331 27.3107 30.1367 27.3314C30.1541 27.428 30.1716 27.5218 30.1853 27.6171C30.2035 27.724 30.2202 27.8296 30.2332 27.9359C30.4299 29.4092 30.329 30.8625 29.9415 32.2516V32.253Z" fill="#161B45"/>
</g>
<defs>
<clipPath id="clip0_9_24">
<rect width="28" height="34" fill="white" transform="translate(6 3)"/>
</clipPath>
</defs>
</svg>
