<svg width="16" height="16" viewBox="0 0 16 16" fill="none" xmlns="http://www.w3.org/2000/svg">
<g clip-path="url(#clip0_9_24)">
<path d="M14.3064 3.1474C14.3104 3.19416 14.315 3.23995 14.3179 3.28607C14.3228 3.34322 14.3268 3.4007 14.3281 3.4572C14.3301 3.49195 14.3314 3.52605 14.3317 3.55917C14.3356 3.70498 14.333 3.84949 14.3235 3.99335C14.3222 4.01868 14.3202 4.04304 14.3182 4.06837C14.3166 4.10571 14.313 4.14338 14.3097 4.18105C14.3015 4.26938 14.29 4.35868 14.2769 4.44669C14.2759 4.45643 14.2742 4.46553 14.2726 4.47559C14.2664 4.51846 14.2591 4.561 14.2513 4.60322C14.2431 4.65193 14.2329 4.69901 14.2237 4.74578C14.2138 4.79351 14.2027 4.83995 14.1922 4.88801C14.185 4.91789 14.1774 4.94777 14.1692 4.97764C14.1328 5.12118 14.0904 5.26341 14.0405 5.40305C14.0317 5.42643 14.0238 5.44982 14.0143 5.47352C13.985 5.55536 13.9526 5.63687 13.9181 5.7174C13.899 5.76287 13.8787 5.80736 13.8587 5.85217C13.8393 5.89439 13.8199 5.93725 13.7979 5.97882C13.796 5.98531 13.7924 5.99148 13.7887 5.9983C13.7707 6.03727 13.751 6.07527 13.7293 6.11359C13.7293 6.11586 13.728 6.11781 13.7257 6.11943C13.7041 6.16327 13.6804 6.20679 13.6561 6.24933C13.6332 6.29025 13.6105 6.33084 13.5859 6.37111C13.5435 6.44287 13.5002 6.51269 13.4533 6.58251C13.4309 6.61856 13.4073 6.65266 13.3833 6.6874C13.3357 6.7569 13.2865 6.82509 13.2356 6.89329C13.2061 6.93226 13.1772 6.97025 13.1467 7.0076C13.0807 7.09171 13.0114 7.17517 12.9395 7.25732C12.9074 7.29402 12.8736 7.33104 12.8397 7.36774C12.4222 7.8214 11.9186 8.23837 11.3317 8.60922C11.3284 8.61117 11.3255 8.61312 11.3222 8.61474C10.8561 8.90766 10.3371 9.1707 9.76721 9.39997L9.76294 9.39802L7.5708 10.2774L7.56752 10.2794L3.95597 11.728C3.95269 11.729 3.94974 11.7303 3.94711 11.7313C2.63866 12.2561 2.01529 13.2777 1.99822 14.3042C1.07842 11.6667 2.08619 8.88558 4.77565 7.28882C4.77958 7.28623 4.78352 7.28428 4.78746 7.28136C5.20206 7.0365 5.65998 6.81178 6.16321 6.60979L6.16682 6.61206L8.53097 5.6635L8.53491 5.6622L11.9741 4.2827V4.28205C11.9764 4.28205 11.9797 4.28075 11.982 4.27977C13.2904 3.75434 13.9473 2.6827 13.965 1.65619C14.1226 2.11018 14.2608 2.69958 14.3054 3.14805L14.3064 3.1474Z" fill="#EA8A5D"/>
<path d="M12.4973 13.7661C12.4714 13.859 12.4448 13.9522 12.414 14.0441V14.0447L12.3155 14.3182C12.2981 14.3633 12.2787 14.4097 12.2603 14.4549C12.2308 14.5221 12.2009 14.5897 12.1697 14.6556C12.1376 14.7225 12.1054 14.789 12.0706 14.8543C12.0246 14.9423 11.9754 15.0294 11.9242 15.1154C11.8723 15.2015 11.8188 15.2862 11.7624 15.3703C11.6777 15.4973 11.5871 15.6207 11.4899 15.7431C11.459 15.7847 11.4252 15.8246 11.3918 15.8649C11.3254 15.9451 11.3373 15.9214 11.265 15.9994C11.6593 15.0492 11.3136 14.0214 10.321 13.0286C10.319 13.0254 10.3173 13.0241 10.3147 13.0218H10.3154L7.64693 10.3524L7.57176 10.2764L5.90944 8.61181L5.9055 8.61311C5.87595 8.58389 5.84641 8.55369 5.81687 8.52381C5.79455 8.50043 5.77091 8.4764 5.7476 8.45237C5.67768 8.3793 5.60711 8.30396 5.5385 8.22667C5.50338 8.18803 5.46891 8.14873 5.43444 8.11009C5.43182 8.10717 5.42886 8.10327 5.42623 8.10035C5.38914 8.05781 5.3527 8.01559 5.31725 7.97305C5.28081 7.93051 5.24602 7.88797 5.21155 7.84542C5.09108 7.69767 4.9775 7.54861 4.87147 7.39923C4.84357 7.36026 4.81567 7.32032 4.78875 7.28102C4.76938 7.25407 4.75133 7.22647 4.73262 7.19951C3.04075 4.68244 2.82213 2.00235 4.6627 0C4.2678 0.950193 4.92137 2.04944 5.91338 3.04315C5.916 3.04445 5.91764 3.04672 5.9206 3.049L5.91994 3.04997L8.45676 5.58815L8.53193 5.66316L10.3259 7.45833H10.3308C10.3577 7.48496 10.3846 7.51289 10.4122 7.54049C10.4319 7.5616 10.4526 7.58173 10.4723 7.60284C10.5074 7.63986 10.5432 7.67656 10.5783 7.7152C10.6144 7.75352 10.6505 7.79282 10.6866 7.83211C10.6903 7.83666 10.6939 7.84055 10.6968 7.84413C10.7257 7.87595 10.7546 7.90745 10.7828 7.94025C10.9785 8.16302 11.159 8.38839 11.3231 8.61441C11.3435 8.64266 11.3632 8.67027 11.3826 8.69787C11.8083 9.29864 12.1277 9.91208 12.3414 10.5255C12.3588 10.5762 12.3759 10.6259 12.3916 10.6765C12.3936 10.6804 12.3949 10.6853 12.3959 10.6882C12.4097 10.7343 12.4241 10.7801 12.4376 10.8259C12.4386 10.8282 12.4389 10.8298 12.4399 10.8321C12.453 10.8798 12.4668 10.9272 12.4796 10.975C12.4941 11.0289 12.5075 11.0837 12.5213 11.1386C12.5328 11.1864 12.5433 11.2341 12.5528 11.2822C12.5623 11.3286 12.5712 11.3757 12.5801 11.4212C12.5827 11.4315 12.584 11.4403 12.5856 11.4501C12.5935 11.4955 12.6014 11.5397 12.6076 11.5845C12.6158 11.6348 12.6234 11.6845 12.6293 11.7345C12.7183 12.4278 12.6726 13.1118 12.4973 13.7655V13.7661Z" fill="#161B45"/>
</g>
<defs>
<clipPath id="clip0_9_24">
<rect width="12.6667" height="16" fill="white" transform="translate(1.66666)"/>
</clipPath>
</defs>
</svg>
